<?xml version="1.0" encoding="UTF-8"?>
<svg width="512px" height="512px" viewBox="0 0 512 512" version="1.1" xmlns="http://www.w3.org/2000/svg" xmlns:xlink="http://www.w3.org/1999/xlink">
    <!-- Generator: Sketch Beta 51 (57336) - http://www.bohemiancoding.com/sketch -->
    <title>AppIcon</title>
    <desc>Created with Sketch Beta.</desc>
    <defs></defs>
    <g id="AppIcon" stroke="none" stroke-width="1" fill="none" fill-rule="evenodd">
        <g id="icon-certificate" transform="translate(11.000000, 59.000000)" fill="#989898">
            <path d="M435.304688,294.47351 C441.411017,284.269898 444.914062,272.373996 444.914062,259.672131 C444.914062,221.770135 413.72265,191.044496 375.246094,191.044496 C336.769537,191.044496 305.578125,221.770135 305.578125,259.672131 C305.578125,274.256003 310.196153,287.777383 318.070312,298.894712 L318.070312,343.138173 L7.6875,343.138173 C3.44181099,343.138173 5.19946946e-16,339.730329 0,335.526541 L0,20.5952392 C-5.19946946e-16,16.3914506 3.44181099,12.9836066 7.6875,12.9836066 L484.3125,12.9836066 C488.558189,12.9836066 492,16.3914506 492,20.5952392 L492,335.526541 C492,339.730329 488.558189,343.138173 484.3125,343.138173 L437.745141,343.138173 L435.304688,343.138173 L435.304688,294.47351 Z M332.484375,313.855367 C344.288268,322.907919 359.127969,328.299766 375.246094,328.299766 C393.635708,328.299766 410.361178,321.281113 422.8125,309.814836 L422.8125,383.016393 L377.648438,347.180769 L332.484375,383.016393 L332.484375,313.855367 Z M90.328125,60.2810304 L88.6590152,60.2810304 C87.125231,61.8820796 85.6065067,62.6825922 84.1027967,62.6825922 C83.3509417,62.6825922 82.0126598,62.4157546 80.087911,61.8820716 C76.328636,60.8147055 73.1859292,60.2810304 70.6596963,60.2810304 C64.0132981,60.2810304 57.3294073,62.141481 50.6078236,65.8624378 C43.8862398,69.5833946 38.7361102,74.4605915 35.1572804,80.4941749 C31.5784506,86.5277583 29.7890625,92.8651495 29.7890625,99.5065385 C29.7890625,106.592664 32.0370753,112.337082 36.5331682,116.739968 C41.0292611,121.142853 46.9613082,123.344262 54.3294872,123.344262 C59.8330659,123.344262 64.4869786,122.232439 68.2913649,120.00876 C72.0957513,117.785081 75.8624883,113.915936 79.5916892,108.401212 L77.4263576,108.401212 C74.4189376,111.870151 71.4416364,114.375459 68.4943648,115.91721 C65.5470931,117.458961 62.2840913,118.229825 58.7052615,118.229825 C54.2843541,118.229825 50.8033176,116.888226 48.2620477,114.204986 C45.7207777,111.521746 44.4501618,107.630365 44.4501618,102.530727 C44.4501618,96.8381082 45.6080012,91.0714528 47.9237146,85.2305883 C50.7807636,78.0258671 54.2693185,72.6742924 58.389484,69.1757035 C62.5096494,65.6771146 66.6447899,63.9278464 70.7950296,63.9278464 C74.6445272,63.9278464 77.7646787,65.2101489 80.1555776,67.7747925 C82.5464765,70.339436 83.8471662,74.2308166 84.0576856,79.4490508 L85.8170175,79.4490508 L90.328125,60.2810304 Z M98.5241585,103.342516 C102.114221,103.057659 104.974553,102.630379 107.105241,102.060664 C110.286678,101.206092 113.161604,99.9598596 115.730104,98.3219294 C118.298604,96.6839993 120.429259,94.5262368 122.122134,91.8485771 C123.348009,89.8830609 123.960938,87.8606036 123.960938,85.7811445 C123.960938,84.0435142 123.333416,82.6050059 122.078353,81.4655762 C120.823291,80.3261466 118.969912,79.7564403 116.518162,79.7564403 C111.673037,79.7564403 106.849875,81.1664633 102.048532,83.9865517 C97.2471878,86.8066401 93.4528697,90.552459 90.6654635,95.2241206 C87.8780572,99.8957822 86.484375,104.567374 86.484375,109.239035 C86.484375,112.230038 87.418361,114.86493 89.286361,117.143789 C91.154361,119.422648 94.5254666,120.562061 99.3997791,120.562061 C103.252529,120.562061 106.76957,119.721744 109.951008,118.041085 C113.132445,116.360427 116.401396,113.540381 119.757959,109.580862 L118.444528,108.427196 C115.73009,110.848484 113.344048,112.54336 111.286329,113.511875 C109.22861,114.48039 107.178219,114.964641 105.135094,114.964641 C103.004407,114.964641 101.30426,114.323721 100.034604,113.041863 C98.7649478,111.760004 98.1301292,110.050886 98.1301292,107.914455 C98.1301292,106.718054 98.261471,105.194089 98.5241585,103.342516 Z M99.9375,102.014052 C101.964922,94.6845596 104.506104,89.195002 107.561123,85.5452142 C109.227497,83.5408225 110.727211,82.5386417 112.06031,82.5386417 C112.726859,82.5386417 113.275366,82.7779684 113.705846,83.2566291 C114.136326,83.7352898 114.351562,84.3934384 114.351562,85.2310947 C114.351562,87.20557 113.87943,89.3221161 112.935152,91.5807963 C111.990873,93.8394764 110.873031,95.7092167 109.581591,97.1900733 C108.290151,98.6709298 106.970958,99.7479002 105.623973,100.421017 C104.276987,101.094133 102.381515,101.62514 99.9375,102.014052 Z M145.613088,79.7564403 L142.982385,79.7564403 L129.741178,82.5956663 L129.346572,83.843205 C130.866542,83.843205 131.86766,83.9435807 132.349958,84.1443351 C132.832256,84.3450894 133.212243,84.6605558 133.48993,85.0907437 C133.767617,85.5209316 133.906458,86.1231857 133.906458,86.8975239 C133.906458,87.5858246 133.64339,88.991084 133.117247,91.1133444 L125.882812,119.63466 L136.493316,119.63466 C138.013286,113.554671 139.197091,109.432099 140.044766,107.26682 C140.892441,105.101541 142.076246,102.455925 143.596216,99.3298925 C145.116185,96.2038603 146.394986,93.9740864 147.432658,92.6405039 C148.47033,91.3069213 149.310685,90.4680675 149.953749,90.1239171 C150.275281,89.951842 150.582193,89.8658057 150.874495,89.8658057 C151.137567,89.8658057 151.38602,89.9590117 151.619861,90.1454264 C151.853702,90.3318412 152.262919,90.9556043 152.847523,92.0167345 C153.432126,93.0778647 154.309019,93.6084218 155.478226,93.6084218 C156.559743,93.6084218 157.538939,93.0061678 158.415845,91.8016416 C159.789663,89.9088148 160.476562,87.5714955 160.476562,84.7896137 C160.476562,83.1835788 160.096576,81.9432223 159.336591,81.0685069 C158.576606,80.1937914 157.582795,79.7564403 156.355127,79.7564403 C154.572086,79.7564403 152.876761,80.5594457 151.269101,82.1654805 C148.521463,84.890004 144.429299,92.1457313 138.992485,103.93288 L145.613088,79.7564403 Z M187.013838,69.5550351 L184.67807,69.5550351 C180.96478,73.6699602 177.790563,76.6532361 175.155324,78.5049524 C172.520085,80.3566687 169.285978,81.9732221 165.452903,83.3546613 L164.554531,86.6171927 L170.663463,86.6171927 L163.566321,110.468943 C162.787728,113.143644 162.398438,115.333339 162.398438,117.038094 C162.398438,118.595887 162.959915,119.881782 164.082886,120.895817 C165.205857,121.909852 166.785479,122.416862 168.821799,122.416862 C171.217471,122.416862 173.658024,121.593889 176.143533,119.947919 C178.629043,118.301949 180.904896,115.715464 182.971163,112.188385 L181.399011,111.218443 C179.572312,113.775575 177.970231,115.56848 176.59272,116.597211 C176.053694,117.008704 175.529648,117.214447 175.020568,117.214447 C174.691163,117.214447 174.391709,117.074835 174.122196,116.795608 C173.852683,116.516381 173.717928,116.185723 173.717928,115.803622 C173.717928,114.980637 173.957492,113.77557 174.436626,112.188385 L181.938035,86.6171927 L187.732536,86.6171927 L189.304688,81.5470425 L183.420349,81.5470425 L187.013838,69.5550351 Z M210.786862,79.7564403 L208.107009,79.7564403 L192.876511,82.3231051 L192.429869,83.9762113 C193.94846,83.9762113 194.975727,84.0704664 195.5117,84.2589794 C196.047673,84.4474925 196.434759,84.7085066 196.67297,85.0420297 C196.91118,85.3755528 197.030283,85.7743244 197.030283,86.2383566 C197.030283,87.3984369 196.613422,89.356043 195.779685,92.1112337 L187.382812,120.08353 L198.772188,120.08353 L202.38999,107.598228 C205.367619,101.478805 208.672738,96.2440209 212.305446,91.8937198 C214.687549,89.080525 216.429436,87.6739488 217.531159,87.6739488 C217.739593,87.6739488 217.94058,87.7609535 218.134126,87.9349655 C218.327672,88.1089776 218.424444,88.2974878 218.424444,88.5005018 C218.424444,89.080542 218.201125,90.1390994 217.75448,91.6762058 L209.402272,120.08353 L220.702319,120.08353 L223.426836,111.121955 C224.260572,108.30876 225.10174,106.017636 225.950364,104.248513 C226.798989,102.479391 228.325001,100.021507 230.528446,96.8747897 C232.731892,93.7280718 234.421672,91.5457035 235.597835,90.3276192 C236.773999,89.1095349 237.644942,88.355494 238.210692,88.0654739 C238.597784,87.8914619 238.98487,87.8044571 239.371962,87.8044571 C239.580396,87.8044571 239.788826,87.8987122 239.997261,88.0872253 C240.205695,88.2757383 240.30991,88.471499 240.30991,88.674513 C240.30991,89.2545532 239.967488,90.7191326 239.282633,93.0682952 L234.235577,110.034385 C233.491169,112.557559 233.118971,114.442662 233.118971,115.689748 C233.118971,116.994838 233.669824,118.13315 234.771547,119.104717 C235.87327,120.076285 237.332287,120.562061 239.14864,120.562061 C241.232981,120.562061 243.503389,119.692014 245.959934,117.951893 C248.416478,116.211773 250.671998,113.471124 252.726562,109.729865 L251.207979,108.772804 C250.672006,109.497854 250.270032,110.034383 250.002045,110.382407 C248.810993,112.00652 247.679511,113.239086 246.607565,114.080145 C246.369354,114.283159 246.086484,114.384664 245.758945,114.384664 C245.520734,114.384664 245.304859,114.283159 245.111313,114.080145 C244.917768,113.877131 244.820996,113.659619 244.820996,113.427603 C244.820996,112.731555 245.193194,111.17997 245.937601,108.772804 L250.89533,92.5462617 C251.788618,89.5880569 252.235256,87.1809264 252.235256,85.3247979 C252.235256,83.6716835 251.706735,82.3303607 250.649676,81.3007895 C249.592618,80.2712182 248.275037,79.7564403 246.696893,79.7564403 C245.178302,79.7564403 243.749062,80.1334607 242.409128,80.8875129 C240.473669,81.9315852 238.195817,83.9326937 235.575503,86.8908985 C233.878254,88.805031 231.094213,92.6622401 227.223294,98.4626416 L229.233184,91.4586918 C230.037144,88.7035011 230.439118,86.6153879 230.439118,85.1942895 C230.439118,83.8311952 230.007368,82.5841275 229.143856,81.4530492 C228.280343,80.3219709 226.880878,79.7564403 224.945419,79.7564403 C223.248171,79.7564403 221.558391,80.2059647 219.876031,81.1050269 C218.19367,82.0040891 216.057253,83.9181929 213.466715,86.8473957 C211.709914,88.8485342 208.910984,92.7202441 205.069843,98.4626416 L210.786862,79.7564403 Z M300.773438,80.3546379 L290.366515,80.9528354 L288.785717,86.2084285 C288.31733,83.7586547 287.585486,82.0708998 286.590163,81.1451132 C285.594841,80.2193266 284.277522,79.7564403 282.638168,79.7564403 C279.681474,79.7564403 276.519909,81.0667647 273.153377,83.6874529 C269.054991,86.8493702 265.747057,91.0295901 263.229477,96.2282379 C260.711896,101.426886 259.453125,106.034385 259.453125,110.050875 C259.453125,112.75702 260.053237,115.185393 261.253479,117.336067 C262.45372,119.48674 264.400425,120.562061 267.09365,120.562061 C269.142844,120.562061 271.074911,119.878413 272.889911,118.511098 C276.022249,116.146781 279.286273,112.130352 282.682079,106.461689 L281.628213,109.92269 C280.691439,112.942178 280.223059,115.007364 280.223059,116.118307 C280.223059,117.400166 280.662165,118.461244 281.540391,119.301573 C282.418617,120.141903 283.692025,120.562061 285.360654,120.562061 C288.083153,120.562061 290.622651,119.714623 292.979223,118.019721 C295.335796,116.32482 297.553282,113.625836 299.63175,109.92269 L298.094863,109.153578 C296.426234,111.403952 295.372379,112.714277 294.933266,113.084591 C293.850121,113.996135 293.001182,114.4519 292.386424,114.4519 C292.122956,114.4519 291.866811,114.323716 291.61798,114.067344 C291.36915,113.810973 291.244736,113.511877 291.244736,113.170048 C291.244736,112.970648 291.288647,112.657309 291.37647,112.230023 L292.254691,108.769023 L300.773438,80.3546379 Z M287.320312,88.6681178 C287.320312,92.8695638 285.898495,97.6752553 283.054818,103.085336 C281.451468,106.164478 279.651507,108.76876 277.654883,110.89826 C276.263296,112.394666 274.886856,113.142857 273.525521,113.142857 C272.890231,113.142857 272.307891,112.804732 271.778483,112.128472 C271.249075,111.452212 270.984375,110.351507 270.984375,108.826325 C270.984375,104.855095 272.156618,100.142927 274.501139,94.6896807 C276.845661,89.236434 279.031327,85.6177771 281.058203,83.8336014 C282.056515,82.9702906 283.024561,82.5386417 283.96237,82.5386417 C284.900178,82.5386417 285.641338,82.8983491 286.185872,83.6177748 C286.94217,84.6537478 287.320312,86.3371786 287.320312,88.6681178 Z M326.571502,79.7564403 L323.888526,79.7564403 L309.066185,82.3203717 L308.582369,83.9717174 C310.048484,83.9717174 311.045426,84.0658721 311.573228,84.2541844 C312.101029,84.4424967 312.482213,84.7032329 312.716791,85.0364008 C312.951369,85.3695687 313.068657,85.782401 313.068657,86.27491 C313.068657,87.4337549 312.672812,89.3892763 311.88111,92.1415328 L303.65625,120.040583 L314.871968,120.040583 L318.478591,107.134013 C322.261166,99.5725505 326.175633,93.8798105 330.222108,90.0556225 C331.805512,88.5491242 333.154317,87.7958863 334.268563,87.7958863 C334.620431,87.7958863 334.92831,87.9190117 335.192211,88.1652663 C335.456111,88.4115208 335.58806,88.693985 335.58806,89.0126673 C335.58806,89.5920898 335.397468,90.490181 335.016278,91.7069681 L329.518377,110.262879 C328.814642,112.667482 328.46278,114.47815 328.46278,115.694937 C328.46278,117.085551 328.975912,118.244378 330.002192,119.171454 C331.028472,120.09853 332.450582,120.562061 334.268563,120.562061 C339.018774,120.562061 343.548999,116.984181 347.859375,109.828314 L346.188013,108.828815 C345.601567,109.640007 345.176401,110.248391 344.9125,110.653987 C343.856898,112.189456 342.815972,113.377254 341.789692,114.217417 C341.467147,114.449186 341.159268,114.565069 340.866045,114.565069 C340.631466,114.565069 340.404222,114.449186 340.184305,114.217417 C339.964388,113.985648 339.854431,113.724912 339.854431,113.435201 C339.854431,112.942692 340.089006,111.885261 340.558162,110.262879 L346.188013,91.7069681 C346.891748,89.3892784 347.24361,87.4192717 347.24361,85.7968889 C347.24361,84.0006794 346.701156,82.5449024 345.616231,81.4295142 C344.531307,80.314126 343.226485,79.7564403 341.701726,79.7564403 C340.001033,79.7564403 338.183079,80.2779126 336.247808,81.320873 C334.312537,82.3638334 332.010772,84.3338401 329.342444,87.2309523 C327.524462,89.2299596 324.78287,92.9526929 321.117584,98.3992638 L326.571502,79.7564403 Z M376.207031,310.679157 C346.221853,310.679157 321.914062,287.219717 321.914062,258.28103 C321.914062,229.342344 346.221853,205.882904 376.207031,205.882904 C406.19221,205.882904 430.5,229.342344 430.5,258.28103 C430.5,287.219717 406.19221,310.679157 376.207031,310.679157 Z M38.1692037,271.728337 C34.0716907,271.728337 30.75,275.050028 30.75,279.147541 C30.75,283.245054 34.0716907,286.566745 38.1692037,286.566745 L256.838609,286.566745 C260.936122,286.566745 264.257812,283.245054 264.257812,279.147541 C264.257812,275.050028 260.936122,271.728337 256.838609,271.728337 L38.1692037,271.728337 Z M38.1692037,231.850117 C34.0716907,231.850117 30.75,235.171808 30.75,239.269321 C30.75,243.366834 34.0716907,246.688525 38.1692037,246.688525 L256.838609,246.688525 C260.936122,246.688525 264.257812,243.366834 264.257812,239.269321 C264.257812,235.171808 260.936122,231.850117 256.838609,231.850117 L38.1692037,231.850117 Z M38.1692037,192.899297 C34.0716907,192.899297 30.75,196.220988 30.75,200.318501 C30.75,204.416014 34.0716907,207.737705 38.1692037,207.737705 L256.838609,207.737705 C260.936122,207.737705 264.257812,204.416014 264.257812,200.318501 C264.257812,196.220988 260.936122,192.899297 256.838609,192.899297 L38.1692037,192.899297 Z" id="Combined-Shape" style="mix-blend-mode: overlay;"></path>
        </g>
    </g>
</svg>